<svg xmlns="http://www.w3.org/2000/svg" version="1.1" xmlns:xlink="http://www.w3.org/1999/xlink" xmlns:svgjs="http://svgjs.dev/svgjs" width="100%" height="100%" viewBox="0 0 1000 600"><rect width="1000" height="600" x="0" y="0" fill="#050505"/><g><rect width="333.3333333333333" height="333.3333333333333" rx="13.333333333333334" ry="13.333333333333334" y="308.5182228214293" fill="#616161" transform="matrix(0.436611090660758,0,0,0.436611090660758,0,92.52901032304747)" x="286.2959899902343"/><path d="M454.138461044561 550.1848919760778Q422.72748787388554 550.1848919760778 400.89098246111655 528.5163596818685Q379.22245016690727 506.67985426909945 379.22245016690727 475.268881098424L379.22245016690727 475.268881098424Q379.22245016690727 443.85790792774856 400.89098246111655 422.02140251497957Q422.72748787388554 400.1848971022105 454.138461044561 400.1848971022105L454.138461044561 400.1848971022105Q484.37362238531813 400.1848971022105 505.53823532384814 422.02140251497957Q526.702848262378 443.85790792774856 526.702848262378 475.268881098424L526.702848262378 475.268881098424Q526.702848262378 506.67985426909945 505.53823532384814 528.5163596818685Q484.37362238531813 550.1848919760778 454.138461044561 550.1848919760778L454.138461044561 550.1848919760778Z " fill="#050505" transform="matrix(0.436611090660758,0,0,0.436611090660758,0,92.52901032304747)"/><path d="M720.7115635548965 461.54853705535544Q726.1498750037218 451.9976716750802 736.6747663151299 445.9641221572293Q747.1996576265379 439.9305726393784 760.6466267313448 439.9305726393784L760.6466267313448 439.9305726393784Q775.0405654914196 439.9305726393784 786.5394827339605 446.7487541573086Q798.0383999765015 453.56693567523877 804.6671875633781 465.9316537454534Q811.2959751502547 478.296371815668 811.2959751502547 494.6654187138734L811.2959751502547 494.6654187138734Q811.2959751502547 510.8180154051604 804.6671875633781 523.4803525098878Q798.0383999765015 536.1426896146154 786.4583139063661 543.177321339464Q774.851171560366 550.1848967884478 760.6466267313448 550.1848967884478L760.6466267313448 550.1848967884478Q746.793813488566 550.1848967884478 736.3771472806171 544.1513472705968Q725.9604810726682 538.090741476881 720.7115635548965 528.7563263035242L720.7115635548965 528.7563263035242L720.7115635548965 548.4262388572356L702.9626465875863 548.4262388572356L702.9626465875863 404.270401049569L720.7115635548965 404.270401049569L720.7115635548965 461.54853705535544ZM793.1682703208371 494.6654187138734Q793.1682703208371 482.5712634023068 788.2981406651727 473.61563609105724Q783.4280110095083 464.6600087798077 775.1487905948787 459.97927305519687Q766.8695701802493 455.2985373305861 756.9399169378668 455.2985373305861L756.9399169378668 455.2985373305861Q747.1996576265379 455.2985373305861 738.9204372119085 460.0874981586561Q730.6412167972791 464.8494027108613 725.6628620381554 473.91325512557006Q720.7115635548965 482.97710754027884 720.7115635548965 494.85481264492705L720.7115635548965 494.85481264492705Q720.7115635548965 506.92191168062885 725.6628620381554 515.9857640953376Q730.6412167972791 525.0496165100465 738.9204372119085 529.8115210622516Q747.1996576265379 534.6004818903216 756.9399169378668 534.6004818903216L756.9399169378668 534.6004818903216Q766.8695701802493 534.6004818903216 775.1487905948787 529.8115210622516Q783.4280110095083 525.0496165100465 788.2981406651727 515.9857640953376Q793.1682703208371 506.92191168062885 793.1682703208371 494.6654187138734L793.1682703208371 494.6654187138734ZM843.817618739747 424.3461577412523Q838.7580951530289 424.3461577412523 835.2407792906047 420.828841878828Q831.7505197040451 417.31152601640366 831.7505197040451 412.25200242968566L831.7505197040451 412.25200242968566Q831.7505197040451 407.1924788429676 835.2407792906047 403.67516298054335Q838.7580951530289 400.1849033939838 843.817618739747 400.1849033939838L843.817618739747 400.1849033939838Q848.6877483954114 400.1849033939838 852.0968391543764 403.67516298054335Q855.5059299133416 407.1924788429676 855.5059299133416 412.25200242968566L855.5059299133416 412.25200242968566Q855.5059299133416 417.31152601640366 852.0968391543764 420.828841878828Q848.6877483954114 424.3461577412523 843.817618739747 424.3461577412523L843.817618739747 424.3461577412523ZM834.6725974974438 441.66217429472573L852.3944581888893 441.66217429472573L852.3944581888893 548.4262388572356L834.6725974974438 548.4262388572356L834.6725974974438 441.66217429472573ZM966.3554921314366 548.4262388572356L942.1942377841681 548.4262388572356L900.3111227454541 501.29420630075L900.3111227454541 548.4262388572356L882.5892620540087 548.4262388572356L882.5892620540087 404.270401049569L900.3111227454541 404.270401049569L900.3111227454541 489.01065705812977L941.4096057840889 441.66217429472573L966.1660982003829 441.66217429472573L915.8955376435803 494.85481264492705L966.3554921314366 548.4262388572356ZM1080.3165260739838 490.9587089203955Q1080.3165260739838 496.0182325071135 1079.7212880049583 501.6729941628572L1079.7212880049583 501.6729941628572L994.4128502032365 501.6729941628572Q995.3868761343693 517.446802992037 1005.2083042732926 526.3212614756922Q1015.0567886880807 535.1686636834825 1029.0719395860483 535.1686636834825L1029.0719395860483 535.1686636834825Q1040.570856828589 535.1686636834825 1048.254839174193 529.8115210622516Q1055.9658777956615 524.4543784410207 1059.0773495201138 515.4987511297711L1059.0773495201138 515.4987511297711L1078.1790802806645 515.4987511297711Q1073.8771324181607 530.8937720968437 1061.0254013823796 540.5258063047133Q1048.1736703465986 550.1848967884478 1029.0719395860483 550.1848967884478L1029.0719395860483 550.1848967884478Q1013.8933688258941 550.1848967884478 1001.9074386177867 543.3667152705175Q989.9215084096793 536.5485337525874 983.1033268917491 523.9673654754542Q976.285145373819 511.41325347418604 976.285145373819 494.85481264492705L976.285145373819 494.85481264492705Q976.285145373819 478.296371815668 982.9139329606955 465.8234286419942Q989.542720547572 453.3504854683203 1001.5015944798147 446.6405290538494Q1013.4875246879221 439.9305726393784 1029.0719395860483 439.9305726393784L1029.0719395860483 439.9305726393784Q1044.2775666220673 439.9305726393784 1055.9658777956615 446.53230395039014Q1067.6541889692562 453.1610915372667 1073.9853575216198 464.7682338832669Q1080.3165260739838 476.34831995340227 1080.3165260739838 490.9587089203955L1080.3165260739838 490.9587089203955ZM1061.9994273135126 487.2519991269176Q1061.9994273135126 477.13295195348155 1057.5080855199553 469.82775746998493Q1053.0438000022632 462.5225629864883 1045.3327613807946 458.7076280895512Q1037.6487790351907 454.91974946847887 1028.2873075859688 454.91974946847887L1028.2873075859688 454.91974946847887Q1014.867394757027 454.91974946847887 1005.3976982043463 463.4965889176212Q995.9550579275302 472.0734283667635 994.6022441342901 487.2519991269176L994.6022441342901 487.2519991269176L1061.9994273135126 487.2519991269176ZM1121.4150091126185 459.005247124064Q1126.0957448372292 449.8602258817608 1134.753753113966 444.8007022950428Q1143.4388176665675 439.71412243246 1155.8847045643765 439.71412243246L1155.8847045643765 439.71412243246L1155.8847045643765 458.0312211929311L1151.2310251156305 458.0312211929311Q1121.4150091126185 458.0312211929311 1121.4150091126185 490.36347085136987L1121.4150091126185 490.36347085136987L1121.4150091126185 548.4262388572356L1103.6931484211732 548.4262388572356L1103.6931484211732 441.66217429472573L1121.4150091126185 441.66217429472573L1121.4150091126185 459.005247124064ZM1171.279725531449 534.1946377523495Q1196.0362179477434 514.3353312675847 1210.0513688457108 501.56476905939803Q1224.0665197436783 488.8212631270761 1233.7256102274127 474.887281056703Q1243.3576444352825 460.9532989863298 1243.3576444352825 447.5063298815231L1243.3576444352825 447.5063298815231Q1243.3576444352825 434.8439927767956 1237.2158698139724 427.53879829329895Q1231.101151468527 420.23360380980233 1217.4647884326664 420.23360380980233L1217.4647884326664 420.23360380980233Q1204.2072132589133 420.23360380980233 1196.9020187754168 428.5128242244318Q1189.5968242919203 436.7920446390613 1189.0015862228947 450.6448578818401L1189.0015862228947 450.6448578818401L1171.8749636004745 450.6448578818401Q1172.659595600554 428.81044325894464 1185.105482498363 416.93273815429643Q1197.5784256720367 405.0550330496482 1217.2483382257483 405.0550330496482L1217.2483382257483 405.0550330496482Q1237.3240949174315 405.0550330496482 1249.1206311944852 416.14810615421715Q1260.8901111956743 427.26823553465096 1260.8901111956743 446.7487541573086L1260.8901111956743 446.7487541573086Q1260.8901111956743 462.90135084859554 1251.2580769878045 478.18814671220883Q1241.5989865040701 493.50199885168695 1229.342493537315 505.08208492182234Q1217.0589442946948 516.6621709919577 1197.9842698100088 532.0571919590302L1197.9842698100088 532.0571919590302L1264.9756088512595 532.0571919590302L1264.9756088512595 546.8569748570771L1171.279725531449 546.8569748570771L1171.279725531449 534.1946377523495ZM1306.1011481657588 461.54853705535544Q1311.5394596145843 451.9976716750802 1322.0643509259921 445.9641221572293Q1332.5892422374004 439.9305726393784 1346.036211342207 439.9305726393784L1346.036211342207 439.9305726393784Q1360.430150102282 439.9305726393784 1371.9290673448227 446.7487541573086Q1383.4279845873639 453.56693567523877 1390.0567721742405 465.9316537454534Q1396.6855597611166 478.296371815668 1396.6855597611166 494.6654187138734L1396.6855597611166 494.6654187138734Q1396.6855597611166 510.8180154051604 1390.0567721742405 523.4803525098878Q1383.4279845873639 536.1426896146154 1371.8478985172283 543.177321339464Q1360.240756171228 550.1848967884478 1346.036211342207 550.1848967884478L1346.036211342207 550.1848967884478Q1332.1833980994284 550.1848967884478 1321.7667318914791 544.1513472705968Q1311.3500656835304 538.090741476881 1306.1011481657588 528.7563263035242L1306.1011481657588 528.7563263035242L1306.1011481657588 548.4262388572356L1288.3522311984484 548.4262388572356L1288.3522311984484 404.270401049569L1306.1011481657588 404.270401049569L1306.1011481657588 461.54853705535544ZM1378.5578549316992 494.6654187138734Q1378.5578549316992 482.5712634023068 1373.687725276035 473.61563609105724Q1368.8175956203704 464.6600087798077 1360.538375205741 459.97927305519687Q1352.2591547911115 455.2985373305861 1342.3295015487288 455.2985373305861L1342.3295015487288 455.2985373305861Q1332.5892422374004 455.2985373305861 1324.3100218227705 460.0874981586561Q1316.030801408141 464.8494027108613 1311.0524466490174 473.91325512557006Q1306.1011481657588 482.97710754027884 1306.1011481657588 494.85481264492705L1306.1011481657588 494.85481264492705Q1306.1011481657588 506.92191168062885 1311.0524466490174 515.9857640953376Q1316.030801408141 525.0496165100465 1324.3100218227705 529.8115210622516Q1332.5892422374004 534.6004818903216 1342.3295015487288 534.6004818903216L1342.3295015487288 534.6004818903216Q1352.2591547911115 534.6004818903216 1360.538375205741 529.8115210622516Q1368.8175956203704 525.0496165100465 1373.687725276035 515.9857640953376Q1378.5578549316992 506.92191168062885 1378.5578549316992 494.6654187138734L1378.5578549316992 494.6654187138734ZM1429.2072033506092 424.3461577412523Q1424.1476797638911 424.3461577412523 1420.6303639014668 420.828841878828Q1417.1401043149071 417.31152601640366 1417.1401043149071 412.25200242968566L1417.1401043149071 412.25200242968566Q1417.1401043149071 407.1924788429676 1420.6303639014668 403.67516298054335Q1424.1476797638911 400.1849033939838 1429.2072033506092 400.1849033939838L1429.2072033506092 400.1849033939838Q1434.0773330062734 400.1849033939838 1437.4864237652387 403.67516298054335Q1440.895514524204 407.1924788429676 1440.895514524204 412.25200242968566L1440.895514524204 412.25200242968566Q1440.895514524204 417.31152601640366 1437.4864237652387 420.828841878828Q1434.0773330062734 424.3461577412523 1429.2072033506092 424.3461577412523L1429.2072033506092 424.3461577412523ZM1420.062182108306 441.66217429472573L1437.7840427997517 441.66217429472573L1437.7840427997517 548.4262388572356L1420.062182108306 548.4262388572356L1420.062182108306 441.66217429472573ZM1551.7450767422988 548.4262388572356L1527.5838223950304 548.4262388572356L1485.7007073563163 501.29420630075L1485.7007073563163 548.4262388572356L1467.978846664871 548.4262388572356L1467.978846664871 404.270401049569L1485.7007073563163 404.270401049569L1485.7007073563163 489.01065705812977L1526.799190394951 441.66217429472573L1551.5556828112453 441.66217429472573L1501.2851222544423 494.85481264492705L1551.7450767422988 548.4262388572356ZM1665.706110684846 490.9587089203955Q1665.706110684846 496.0182325071135 1665.1108726158204 501.6729941628572L1665.1108726158204 501.6729941628572L1579.802434814099 501.6729941628572Q1580.7764607452318 517.446802992037 1590.597888884155 526.3212614756922Q1600.446373298943 535.1686636834825 1614.4615241969104 535.1686636834825L1614.4615241969104 535.1686636834825Q1625.9604414394516 535.1686636834825 1633.644423785055 529.8115210622516Q1641.355462406524 524.4543784410207 1644.466934130976 515.4987511297711L1644.466934130976 515.4987511297711L1663.5686648915266 515.4987511297711Q1659.2667170290229 530.8937720968437 1646.4149859932418 540.5258063047133Q1633.5632549574611 550.1848967884478 1614.4615241969104 550.1848967884478L1614.4615241969104 550.1848967884478Q1599.2829534367565 550.1848967884478 1587.2970232286489 543.3667152705175Q1575.3110930205416 536.5485337525874 1568.4929115026112 523.9673654754542Q1561.674729984681 511.41325347418604 1561.674729984681 494.85481264492705L1561.674729984681 494.85481264492705Q1561.674729984681 478.296371815668 1568.3035175715577 465.8234286419942Q1574.9323051584342 453.3504854683203 1586.8911790906768 446.6405290538494Q1598.8771092987845 439.9305726393784 1614.4615241969104 439.9305726393784L1614.4615241969104 439.9305726393784Q1629.6671512329294 439.9305726393784 1641.355462406524 446.53230395039014Q1653.0437735801183 453.1610915372667 1659.374942132482 464.7682338832669Q1665.706110684846 476.34831995340227 1665.706110684846 490.9587089203955L1665.706110684846 490.9587089203955ZM1647.3890119243747 487.2519991269176Q1647.3890119243747 477.13295195348155 1642.8976701308175 469.82775746998493Q1638.4333846131253 462.5225629864883 1630.7223459916568 458.7076280895512Q1623.0383636460529 454.91974946847887 1613.676892196831 454.91974946847887L1613.676892196831 454.91974946847887Q1600.2569793678895 454.91974946847887 1590.7872828152085 463.4965889176212Q1581.3446425383922 472.0734283667635 1579.9918287451524 487.2519991269176L1579.9918287451524 487.2519991269176L1647.3890119243747 487.2519991269176ZM1706.8045937234806 459.005247124064Q1711.4853294480913 449.8602258817608 1720.1433377248281 444.8007022950428Q1728.8284022774296 439.71412243246 1741.2742891752387 439.71412243246L1741.2742891752387 439.71412243246L1741.2742891752387 458.0312211929311L1736.6206097264926 458.0312211929311Q1706.8045937234806 458.0312211929311 1706.8045937234806 490.36347085136987L1706.8045937234806 490.36347085136987L1706.8045937234806 548.4262388572356L1689.0827330320349 548.4262388572356L1689.0827330320349 441.66217429472573L1706.8045937234806 441.66217429472573L1706.8045937234806 459.005247124064ZM1767.383595384773 549.589658719422Q1762.3240717980548 549.589658719422 1758.8067559356305 546.0993991328626Q1755.3164963490713 542.5820832704383 1755.3164963490713 537.5225596837203L1755.3164963490713 537.5225596837203Q1755.3164963490713 532.4630360970023 1758.8067559356305 528.945720234578Q1762.3240717980548 525.4284043721536 1767.383595384773 525.4284043721536L1767.383595384773 525.4284043721536Q1772.2537250404375 525.4284043721536 1775.6628157994023 528.945720234578Q1779.0719065583676 532.4630360970023 1779.0719065583676 537.5225596837203L1779.0719065583676 537.5225596837203Q1779.0719065583676 542.5820832704383 1775.6628157994023 546.0993991328626Q1772.2537250404375 549.589658719422 1767.383595384773 549.589658719422L1767.383595384773 549.589658719422ZM1879.585971396108 441.66217429472573L1897.334888363418 441.66217429472573L1897.334888363418 548.4262388572356L1879.585971396108 548.4262388572356L1879.585971396108 532.6524300280558Q1874.52644780939 540.8234253392261 1865.462595394681 545.3959359603778Q1856.4257992558373 549.9955028573941 1845.495063806457 549.9955028573941L1845.495063806457 549.9955028573941Q1833.049176908648 549.9955028573941 1823.092467390401 544.8277541672169Q1813.1628141480182 539.6600054770397 1807.4268836646802 529.3245080966851Q1801.6638969054775 519.0160669921954 1801.6638969054775 504.21628409414865L1801.6638969054775 504.21628409414865L1801.6638969054775 441.66217429472573L1819.1963636658693 441.66217429472573L1819.1963636658693 501.86238809391085Q1819.1963636658693 517.6361969230907 1827.2050213218508 526.1318675446385Q1835.1866227019673 534.6004818903216 1849.0123796688817 534.6004818903216L1849.0123796688817 534.6004818903216Q1863.2439807737674 534.6004818903216 1871.4149760849377 525.8342485101257Q1879.585971396108 517.0680151299298 1879.585971396108 500.3201803696171L1879.585971396108 500.3201803696171L1879.585971396108 441.66217429472573ZM1965.1108594047478 550.1848967884478Q1952.8543664379927 550.1848967884478 1943.1141071266638 545.9911740294033Q1933.373847815335 541.797451270359 1927.7190861595914 534.3028628558088Q1922.0643245038473 526.8082744412586 1921.4690864348217 517.0680151299298L1921.4690864348217 517.0680151299298L1939.786185195293 517.0680151299298Q1940.570817195372 525.0496165100465 1947.2807736098434 530.1091400967643Q1954.017786300179 535.1686636834825 1964.9214654736943 535.1686636834825L1964.9214654736943 535.1686636834825Q1975.0405126471305 535.1686636834825 1980.884668233928 530.7043781657901Q1986.7288238207252 526.2130363722329 1986.7288238207252 519.3948548543027L1986.7288238207252 519.3948548543027Q1986.7288238207252 512.3872794053188 1980.5058803718207 508.97818864635383Q1974.2829369229162 505.56909788738875 1961.2147556802165 502.2682322318829L1961.2147556802165 502.2682322318829Q1949.3370505755684 499.1297042315658 1941.8424621610184 495.93706367951916Q1934.347873746468 492.71736685160766 1928.9907311252368 486.3861982992439Q1923.6335885040062 480.05502974688017 1923.6335885040062 469.7195323665257L1923.6335885040062 469.7195323665257Q1923.6335885040062 461.54853705535544 1928.5037181596704 454.7303555374252Q1933.373847815335 447.91217401949507 1942.3294751265844 443.90784519150435Q1951.2851024378338 439.9305726393784 1962.784019680375 439.9305726393784L1962.784019680375 439.9305726393784Q1980.5058803718207 439.9305726393784 1991.409559545336 448.88619995062794Q2002.3132387188512 457.84182726187754 2003.0978707189306 473.4262421600036L2003.0978707189306 473.4262421600036L1985.3760100274849 473.4262421600036Q1984.7807719584594 465.0387966419149 1978.666053613014 459.97927305519687Q1972.5242789917038 454.91974946847887 1962.1887816113494 454.91974946847887L1962.1887816113494 454.91974946847887Q1952.637916231074 454.91974946847887 1947.010210851195 459.005247124064Q1941.3554491954515 463.0907447796491 1941.3554491954515 469.7195323665257L1941.3554491954515 469.7195323665257Q1941.3554491954515 474.99550616016217 1944.7645399544167 478.40459691912724Q1948.173630713382 481.8136876780923 1953.3413794035591 483.84290836795253Q1958.4820718178712 485.8991853336775 1967.6541493360396 488.4154189891041L1967.6541493360396 488.4154189891041Q1979.1530665785804 491.55394698942115 1986.3500359586178 494.55719361041423Q1993.5470053386553 497.5874965072721 1998.7147540288324 503.621046025123Q2003.8825027190096 509.6545955429739 2004.071896650063 519.3948548543027L2004.071896650063 519.3948548543027Q2004.071896650063 528.1610882344987 1999.201766994399 535.1686636834825Q1994.3316373387343 542.2032954083311 1985.484235130944 546.180567960457Q1976.609776647289 550.1848967884478 1965.1108594047478 550.1848967884478L1965.1108594047478 550.1848967884478Z " fill="#616161" transform="matrix(0.436611090660758,0,0,0.436611090660758,0,92.52901032304747)"/></g></svg>